<svg xmlns="http://www.w3.org/2000/svg" xmlns:xlink="http://www.w3.org/1999/xlink" width="500" zoomAndPan="magnify" viewBox="0 0 375 374.999991" height="500" preserveAspectRatio="xMidYMid meet" version="1.0"><defs><clipPath id="4c36d3ee12"><path d="M 7.578125 7.125 L 367.410156 7.125 L 367.410156 367.863281 L 7.578125 367.863281 Z M 7.578125 7.125 " clip-rule="nonzero"/></clipPath></defs><rect x="-37.5" width="450" fill="#ffffff" y="-37.499999" height="449.999989" fill-opacity="1"/><rect x="-37.5" width="450" fill="#ffffff" y="-37.499999" height="449.999989" fill-opacity="1"/><g clip-path="url(#4c36d3ee12)"><path fill="#ffffff" d="M 83.410156 66.730469 L 166.640625 66.730469 C 178.535156 66.730469 188.460938 75.171875 190.757812 86.394531 L 191.257812 91.355469 L 190.757812 96.320312 C 188.460938 107.539062 178.535156 115.980469 166.640625 115.980469 L 76.722656 115.980469 C 65.726562 115.980469 56.808594 124.902344 56.808594 135.902344 L 56.808594 298.691406 C 56.808594 309.691406 65.726562 318.613281 76.722656 318.613281 L 239.445312 318.613281 C 250.445312 318.613281 259.359375 309.691406 259.359375 298.691406 L 259.359375 207.621094 C 259.359375 195.71875 267.796875 185.789062 279.011719 183.492188 L 283.972656 182.992188 L 288.9375 183.492188 C 300.152344 185.789062 308.589844 195.71875 308.589844 207.621094 L 308.589844 317.675781 C 308.589844 345.394531 286.128906 367.863281 258.421875 367.863281 L 57.75 367.863281 C 30.039062 367.863281 7.578125 345.394531 7.578125 317.675781 L 7.578125 116.917969 C 7.578125 89.199219 30.039062 66.730469 57.75 66.730469 Z M 342.792969 7.125 L 347.753906 7.625 C 352.5625 8.609375 356.859375 10.996094 360.203125 14.339844 C 364.65625 18.796875 367.410156 24.953125 367.410156 31.753906 L 367.410156 148.644531 C 367.410156 162.242188 356.390625 173.269531 342.792969 173.269531 C 329.199219 173.269531 318.179688 162.242188 318.179688 148.644531 L 318.179688 89.324219 L 163.859375 249.074219 C 154.414062 258.851562 138.828125 259.121094 129.054688 249.667969 C 119.277344 240.21875 119.011719 224.628906 128.457031 214.847656 L 281.535156 56.378906 L 225.953125 56.378906 C 214.054688 56.378906 204.132812 47.9375 201.835938 36.714844 L 201.335938 31.753906 L 201.835938 26.789062 C 204.132812 15.566406 214.054688 7.125 225.953125 7.125 Z M 342.792969 7.125 " fill-opacity="1" fill-rule="evenodd"/></g></svg>