<svg xmlns="http://www.w3.org/2000/svg" xmlns:xlink="http://www.w3.org/1999/xlink" width="500" zoomAndPan="magnify" viewBox="0 0 375 374.999991" height="500" preserveAspectRatio="xMidYMid meet" version="1.0"><defs><clipPath id="efba9f4ff7"><path d="M 38.433594 37.5 L 337.683594 37.5 L 337.683594 336.75 L 38.433594 336.75 Z M 38.433594 37.5 " clip-rule="nonzero"/></clipPath></defs><g clip-path="url(#efba9f4ff7)"><path fill="#fffaf1" d="M 302.988281 106.515625 C 302.988281 106.515625 103.316406 106.515625 68.890625 106.515625 C 58.789062 106.515625 49.820312 104.488281 49.820312 95.011719 L 302.988281 83.507812 L 302.988281 60.503906 C 302.988281 41.457031 287.527344 37.5 268.480469 37.5 L 61.679688 72.007812 C 43.25 76.101562 38.433594 83.914062 38.433594 95.011719 L 38.433594 302.054688 C 38.433594 321.101562 53.890625 336.5625 72.9375 336.5625 L 302.988281 336.5625 C 322.035156 336.5625 337.496094 321.101562 337.496094 302.054688 L 337.496094 141.023438 C 337.496094 121.972656 322.035156 106.515625 302.988281 106.515625 Z M 291.484375 244.542969 C 278.785156 244.542969 268.480469 234.238281 268.480469 221.539062 C 268.480469 208.839844 278.785156 198.535156 291.484375 198.535156 C 304.183594 198.535156 314.488281 208.839844 314.488281 221.539062 C 314.488281 234.238281 304.183594 244.542969 291.484375 244.542969 Z M 291.484375 244.542969 " fill-opacity="1" fill-rule="nonzero"/></g></svg>